# xmcd
#
# Track frame offsets:
#	150
#	15890
#	34932
#	56282
#	71330
#	87765
#
# Disc length: 1189 seconds
#
# Revision: 1
# Processed by: cddbd v1.5.2PL0 Copyright (c) Steve Scherf et al.
# Submitted via: audiograbber 1.83.01
#
DISCID=3904a306
DTITLE=Waldo - Give Me Your Love [CDM)
DYEAR=1995
DGENRE=Dance
TTITLE0=Give Me Your Love (Optical 2 Radio Remix)
TTITLE1=Give Me Your Love (Dreammaker Club Edit)
TTITLE2=Give Me Your Love (Mixmaster K and J.B. House Mix)
TTITLE3=Give Me Your Love (Mixmaster K and J.B. US Mix)
TTITLE4=Give Me Your Love (Original Mix)
TTITLE5=Give Me Your Love (Chorus Accapella)
EXTD=TR.
EXTT0=
EXTT1=
EXTT2=
EXTT3=
EXTT4=
EXTT5=
PLAYORDER=
